<svg viewBox="0 0 39 42"
  xmlns="http://www.w3.org/2000/svg">
  <path fill-rule="evenodd" clip-rule="evenodd" d="M15.4441 40.6801L4.10267 34.1321C1.75039 32.774 0.301331 30.2642 0.301331 27.548L0.301333 14.452C0.301333 11.7358 1.7504 9.22598 4.10267 7.8679L15.4441 1.31991C17.7964 -0.0381776 20.6945 -0.0381736 23.0468 1.31991L34.3882 7.8679C36.7405 9.22599 38.1896 11.7358 38.1896 14.452L38.1896 27.548C38.1896 30.2642 36.7405 32.774 34.3882 34.1321L23.0468 40.6801C20.6945 42.0382 17.7964 42.0382 15.4441 40.6801ZM16.9441 38.082C18.3682 38.9042 20.1227 38.9042 21.5468 38.082L32.8882 31.534C34.3123 30.7118 35.1896 29.1924 35.1896 27.548L35.1896 14.452C35.1896 12.8076 34.3123 11.2882 32.8882 10.466L21.5468 3.91799C20.1227 3.0958 18.3682 3.0958 16.9441 3.91798L5.60267 10.466C4.1786 11.2882 3.30133 12.8076 3.30133 14.452L3.30133 27.548C3.30133 29.1924 4.17859 30.7118 5.60267 31.534L16.9441 38.082ZM20.776 35.9344C19.6829 36.5903 18.3172 36.5903 17.224 35.9344L6.49359 29.4962C5.79308 29.0758 6.09107 28 6.908 28L31.092 28C31.9089 28 32.2069 29.0759 31.5064 29.4962L20.776 35.9344ZM19 24C22.3137 24 25 21.3137 25 18C25 14.6863 22.3137 12 19 12C15.6863 12 13 14.6863 13 18C13 21.3137 15.6863 24 19 24Z" />
</svg>
